# xmcd CD database file
#
# Track frame offsets:
#	150
#	23598
#	47835
#	70905
#	101085
#	125093
#	149003
#	185261
#	217801
#	242717
#	266343
#	289284
#	303166
#
# Disc length: 4113 seconds
#
# Revision: 0
# Processed by: cddbd v1.5.2PL0 Copyright (c) Steve Scherf et al.
# Submitted via: CDex 1.51
#
DISCID=c0100f0d
DTITLE=Lee Oskar - The Best of Lee Oskar CD 1
DYEAR=2006
DGENRE=Blues
TTITLE0=You and I
TTITLE1=Lavender Song
TTITLE2=Leslie's Song
TTITLE3=A Soulful Prayer
TTITLE4=Stephanie's Lullaby
TTITLE5=Whatta Day
TTITLE6=Another Time and Place
TTITLE7=Before the Rain
TTITLE8=My Road
TTITLE9=So Much In Love
TTITLE10=In the Pocket
TTITLE11=Turn It Around
TTITLE12=Tango In Tokyo and Seoul
EXTD=YEAR: 2006
EXTT0=
EXTT1=
EXTT2=
EXTT3=
EXTT4=
EXTT5=
EXTT6=
EXTT7=
EXTT8=
EXTT9=
EXTT10=
EXTT11=
EXTT12=
PLAYORDER=
